<svg xmlns="http://www.w3.org/2000/svg" xmlns:xlink="http://www.w3.org/1999/xlink" xml:lang="en" height="785.8pt" width="957.8pt" viewBox="-512.2 -295.2 957.8 785.8"><polygon points="-310.5,-16.2 -297.9,-7.2 -310.5,1.8 " style="stroke:black;fill:none;stroke-width:2.0;stroke-dasharray:-;stroke-linecap:round;stroke-linejoin:round;" /><polygon points="-268.2,13.5 -277.2,26.1 -286.2,13.5 " style="stroke:black;fill:none;stroke-width:2.0;stroke-dasharray:-;stroke-linecap:round;stroke-linejoin:round;" /><polygon points="282.6,-27 282.6,9 291.6,9 291.6,-27 " style="stroke:black;fill:none;stroke-width:2.0;stroke-dasharray:-;stroke-linecap:round;stroke-linejoin:round;" /><polyline points="291.6,-27 305.1,-40.5 305.1,22.5 291.6,9 " style="stroke:black;fill:none;stroke-width:2.0;stroke-dasharray:-;stroke-linecap:round;stroke-linejoin:round;" /><circle cx="126" cy="160.92" r="4.32" style="stroke:black;fill:none;stroke-width:2.0;stroke-dasharray:-;" /><circle cx="126" cy="188.28" r="4.32" style="stroke:black;fill:none;stroke-width:2.0;stroke-dasharray:-;" /><circle cx="-64.8" cy="-256.68" r="4.32" style="stroke:black;fill:none;stroke-width:2.0;stroke-dasharray:-;" /><circle cx="-64.8" cy="-229.32" r="4.32" style="stroke:black;fill:none;stroke-width:2.0;stroke-dasharray:-;" /><path d="M 0.0,-0.0 L 216,-0 L 216,-288 L 0,-288 L 0,-0" style="stroke:black;fill:none;stroke-width:2.0;stroke-dasharray:-;stroke-linecap:round;stroke-linejoin:round;" /><path d="M 0.0,-18.0 L -32.4,-18" style="stroke:black;fill:none;stroke-width:2.0;stroke-dasharray:-;stroke-linecap:round;stroke-linejoin:round;" /><path d="M 0.0,-102.0 L -32.4,-102" style="stroke:black;fill:none;stroke-width:2.0;stroke-dasharray:-;stroke-linecap:round;stroke-linejoin:round;" /><path d="M 0.0,-186.0 L -32.4,-186" style="stroke:black;fill:none;stroke-width:2.0;stroke-dasharray:-;stroke-linecap:round;stroke-linejoin:round;" /><path d="M 0.0,-270.0 L -32.4,-270" style="stroke:black;fill:none;stroke-width:2.0;stroke-dasharray:-;stroke-linecap:round;stroke-linejoin:round;" /><path d="M 216.0,-18.0 L 248.4,-18" style="stroke:black;fill:none;stroke-width:2.0;stroke-dasharray:-;stroke-linecap:round;stroke-linejoin:round;" /><path d="M 216.0,-81.0 L 248.4,-81" style="stroke:black;fill:none;stroke-width:2.0;stroke-dasharray:-;stroke-linecap:round;stroke-linejoin:round;" /><path d="M 216.0,-144.0 L 248.4,-144" style="stroke:black;fill:none;stroke-width:2.0;stroke-dasharray:-;stroke-linecap:round;stroke-linejoin:round;" /><path d="M 216.0,-207.0 L 248.4,-207" style="stroke:black;fill:none;stroke-width:2.0;stroke-dasharray:-;stroke-linecap:round;stroke-linejoin:round;" /><path d="M 216.0,-270.0 L 248.4,-270" style="stroke:black;fill:none;stroke-width:2.0;stroke-dasharray:-;stroke-linecap:round;stroke-linejoin:round;" /><path d="M 18.0,-0.0 L 18,32.4" style="stroke:black;fill:none;stroke-width:2.0;stroke-dasharray:-;stroke-linecap:round;stroke-linejoin:round;" /><path d="M 54.0,-0.0 L 54,32.4" style="stroke:black;fill:none;stroke-width:2.0;stroke-dasharray:-;stroke-linecap:round;stroke-linejoin:round;" /><path d="M 90.0,-0.0 L 90,32.4" style="stroke:black;fill:none;stroke-width:2.0;stroke-dasharray:-;stroke-linecap:round;stroke-linejoin:round;" /><path d="M 126.0,-0.0 L 126,32.4" style="stroke:black;fill:none;stroke-width:2.0;stroke-dasharray:-;stroke-linecap:round;stroke-linejoin:round;" /><path d="M 162.0,-0.0 L 162,32.4" style="stroke:black;fill:none;stroke-width:2.0;stroke-dasharray:-;stroke-linecap:round;stroke-linejoin:round;" /><path d="M 198.0,-0.0 L 198,32.4" style="stroke:black;fill:none;stroke-width:2.0;stroke-dasharray:-;stroke-linecap:round;stroke-linejoin:round;" /><path d="M -32.4,-102.0 L -32.4,-116.4" style="stroke:black;fill:none;stroke-width:2.0;stroke-dasharray:-;stroke-linecap:round;stroke-linejoin:round;" /><path d="M -32.4,-116.4 L -39.15,-116.4" style="stroke:black;fill:none;stroke-width:2.0;stroke-dasharray:-;stroke-linecap:round;stroke-linejoin:round;" /><path d="M -32.4,-116.4 L -25.65,-116.4" style="stroke:black;fill:none;stroke-width:2.0;stroke-dasharray:-;stroke-linecap:round;stroke-linejoin:round;" /><path d="M -32.4,-186.0 L -32.4,-171.6 L -41.4,-171.6 L -23.4,-171.6 M -38.7,-167.28 L -26.1,-167.28 M -34.2,-162.96 L -30.6,-162.96" style="stroke:black;fill:none;stroke-width:2.0;stroke-dasharray:-;stroke-linecap:round;stroke-linejoin:round;" /><path d="M -507.59999999999997,10.8 L -428.4,10.8 L -428.4,-118.8 L -507.6,-118.8 L -507.6,10.8" style="stroke:black;fill:none;stroke-width:2.0;stroke-dasharray:-;stroke-linecap:round;stroke-linejoin:round;" /><path d="M -428.40000000000003,-7.199999999999998 L -406.8,-7.2" style="stroke:black;fill:none;stroke-width:2.0;stroke-dasharray:-;stroke-linecap:round;stroke-linejoin:round;" /><path d="M -428.40000000000003,-54.0 L -406.8,-54" style="stroke:black;fill:none;stroke-width:2.0;stroke-dasharray:-;stroke-linecap:round;stroke-linejoin:round;" /><path d="M -428.40000000000003,-100.8 L -406.8,-100.8" style="stroke:black;fill:none;stroke-width:2.0;stroke-dasharray:-;stroke-linecap:round;stroke-linejoin:round;" /><path d="M -406.8,-7.199999999999998 L -396,-7.2 L -385.2,-7.2" style="stroke:black;fill:none;stroke-width:2.0;stroke-dasharray:-;stroke-linecap:round;stroke-linejoin:round;" /><path d="M -385.20000000000005,-7.199999999999998 L -376.2,-7.2 L -376.2,-16.2 L -340.2,-16.2 L -340.2,1.8 L -376.2,1.8 L -376.2,-7.2 M -340.2,-7.2 L -331.2,-7.2" style="stroke:black;fill:none;stroke-width:2.0;stroke-dasharray:-;stroke-linecap:round;stroke-linejoin:round;" /><path d="M -376.20000000000005,-7.199999999999998 L -340.2,-7.2" style="stroke:black;fill:none;stroke-width:2.0;stroke-dasharray:-;stroke-linecap:round;stroke-linejoin:round;" /><path d="M -331.20000000000005,-7.199999999999998 L -310.5,-7.2 M -297.9,-16.2 L -297.9,1.8 M -297.9,-7.2 L -277.2,-7.2" style="stroke:black;fill:none;stroke-width:2.0;stroke-dasharray:-;stroke-linecap:round;stroke-linejoin:round;" /><path d="M -297.90000000000003,-16.2 L -301.5,-16.2 L -301.5,-12.6" style="stroke:black;fill:none;stroke-width:2.0;stroke-dasharray:-;stroke-linecap:round;stroke-linejoin:round;" /><path d="M -297.90000000000003,1.8000000000000016 L -294.3,1.8 L -294.3,-1.8" style="stroke:black;fill:none;stroke-width:2.0;stroke-dasharray:-;stroke-linecap:round;stroke-linejoin:round;" /><path d="M -277.20000000000005,-7.199999999999998 L -277.2,13.5 M -268.2,26.1 L -286.2,26.1 M -277.2,26.1 L -277.2,46.8" style="stroke:black;fill:none;stroke-width:2.0;stroke-dasharray:-;stroke-linecap:round;stroke-linejoin:round;" /><path d="M -268.20000000000005,26.099999999999998 L -264.6,29.7" style="stroke:black;fill:none;stroke-width:2.0;stroke-dasharray:-;stroke-linecap:round;stroke-linejoin:round;" /><path d="M -286.20000000000005,26.099999999999998 L -289.8,22.5" style="stroke:black;fill:none;stroke-width:2.0;stroke-dasharray:-;stroke-linecap:round;stroke-linejoin:round;" /><path d="M -277.20000000000005,46.800000000000004 L -277.2,61.2 L -286.2,61.2 L -268.2,61.2 M -283.5,65.52 L -270.9,65.52 M -279,69.84 L -275.4,69.84" style="stroke:black;fill:none;stroke-width:2.0;stroke-dasharray:-;stroke-linecap:round;stroke-linejoin:round;" /><path d="M -230.40000000000003,-7.199999999999998 L -230.4,16.56 M -221.4,16.56 L -239.4,16.56 M -221.4,23.04 L -239.4,23.04 M -230.4,23.04 L -230.4,46.8" style="stroke:black;fill:none;stroke-width:2.0;stroke-dasharray:-;stroke-linecap:round;stroke-linejoin:round;" /><path d="M -230.40000000000003,46.800000000000004 L -230.4,61.2 L -239.4,61.2 L -221.4,61.2 M -236.7,65.52 L -224.1,65.52 M -232.2,69.84 L -228.6,69.84" style="stroke:black;fill:none;stroke-width:2.0;stroke-dasharray:-;stroke-linecap:round;stroke-linejoin:round;" /><path d="M -230.40000000000003,-7.199999999999998 L -253.8,-7.2 L -277.2,-7.2" style="stroke:black;fill:none;stroke-width:2.0;stroke-dasharray:-;stroke-linecap:round;stroke-linejoin:round;" /><path d="M -277.20000000000005,-7.199999999999998 L -32.4,-7.2 L -32.4,-18" style="stroke:black;fill:none;stroke-width:2.0;stroke-dasharray:-;stroke-linecap:round;stroke-linejoin:round;" /><path d="M -406.8,-54.0 L -406.8,-39.6 L -415.8,-39.6 L -397.8,-39.6 M -413.1,-35.28 L -400.5,-35.28 M -408.6,-30.96 L -405,-30.96" style="stroke:black;fill:none;stroke-width:2.0;stroke-dasharray:-;stroke-linecap:round;stroke-linejoin:round;" /><path d="M 388.8,-111.60000000000001 L 388.8,-212.4 L 259.2,-212.4 L 259.2,-111.6 L 388.8,-111.6" style="stroke:black;fill:none;stroke-width:2.0;stroke-dasharray:-;stroke-linecap:round;stroke-linejoin:round;" /><path d="M 370.8,-111.60000000000001 L 370.8,-90" style="stroke:black;fill:none;stroke-width:2.0;stroke-dasharray:-;stroke-linecap:round;stroke-linejoin:round;" /><path d="M 324.0,-111.60000000000001 L 324,-90" style="stroke:black;fill:none;stroke-width:2.0;stroke-dasharray:-;stroke-linecap:round;stroke-linejoin:round;" /><path d="M 277.2,-111.60000000000001 L 277.2,-90" style="stroke:black;fill:none;stroke-width:2.0;stroke-dasharray:-;stroke-linecap:round;stroke-linejoin:round;" /><path d="M 370.8,-90.0 L 370.8,-104.4" style="stroke:black;fill:none;stroke-width:2.0;stroke-dasharray:-;stroke-linecap:round;stroke-linejoin:round;" /><path d="M 370.8,-104.39999999999999 L 364.05,-104.4" style="stroke:black;fill:none;stroke-width:2.0;stroke-dasharray:-;stroke-linecap:round;stroke-linejoin:round;" /><path d="M 370.8,-104.39999999999999 L 377.55,-104.4" style="stroke:black;fill:none;stroke-width:2.0;stroke-dasharray:-;stroke-linecap:round;stroke-linejoin:round;" /><path d="M 324.0,-90.0 L 324,-75.6 L 315,-75.6 L 333,-75.6 M 317.7,-71.28 L 330.3,-71.28 M 322.2,-66.96 L 325.8,-66.96" style="stroke:black;fill:none;stroke-width:2.0;stroke-dasharray:-;stroke-linecap:round;stroke-linejoin:round;" /><path d="M 248.4,-270.0 L 261,-270 L 273.6,-270" style="stroke:black;fill:none;stroke-width:2.0;stroke-dasharray:-;stroke-linecap:round;stroke-linejoin:round;" /><path d="M 273.6,-270.0 L 282.6,-270 L 285.6,-279 L 291.6,-261 L 297.6,-279 L 303.6,-261 L 309.6,-279 L 315.6,-261 L 318.6,-270 L 327.6,-270" style="stroke:black;fill:none;stroke-width:2.0;stroke-dasharray:-;stroke-linecap:round;stroke-linejoin:round;" /><path d="M 327.6,-270.0 L 327.6,-261 L 336.6,-258 L 318.6,-252 L 336.6,-246 L 318.6,-240 L 336.6,-234 L 318.6,-228 L 327.6,-225 L 327.6,-216" style="stroke:black;fill:none;stroke-width:2.0;stroke-dasharray:-;stroke-linecap:round;stroke-linejoin:round;" /><path d="M 327.6,-216.0 L 327.6,-201.6 L 318.6,-201.6 L 336.6,-201.6 M 321.3,-197.28 L 333.9,-197.28 M 325.8,-192.96 L 329.4,-192.96" style="stroke:black;fill:none;stroke-width:2.0;stroke-dasharray:-;stroke-linecap:round;stroke-linejoin:round;" /><path d="M 327.6,-270.0 L 277.2,-270 L 277.2,-90" style="stroke:black;fill:none;stroke-width:2.0;stroke-dasharray:-;stroke-linecap:round;stroke-linejoin:round;" /><path d="M 243.0,-10.799999999999994 L 243,82.8 L 405,82.8 L 405,-10.8 L 243,-10.8" style="stroke:black;fill:none;stroke-width:2.0;stroke-dasharray:-;stroke-linecap:round;stroke-linejoin:round;" /><path d="M 261.0,-10.8 L 261,-32.4" style="stroke:black;fill:none;stroke-width:2.0;stroke-dasharray:-;stroke-linecap:round;stroke-linejoin:round;" /><path d="M 303.0,-10.8 L 303,-32.4" style="stroke:black;fill:none;stroke-width:2.0;stroke-dasharray:-;stroke-linecap:round;stroke-linejoin:round;" /><path d="M 345.0,-10.8 L 345,-32.4" style="stroke:black;fill:none;stroke-width:2.0;stroke-dasharray:-;stroke-linecap:round;stroke-linejoin:round;" /><path d="M 387.0,-10.8 L 387,-32.4" style="stroke:black;fill:none;stroke-width:2.0;stroke-dasharray:-;stroke-linecap:round;stroke-linejoin:round;" /><path d="M 345.0,-32.4 L 345,-46.8" style="stroke:black;fill:none;stroke-width:2.0;stroke-dasharray:-;stroke-linecap:round;stroke-linejoin:round;" /><path d="M 345.0,-46.8 L 338.25,-46.8" style="stroke:black;fill:none;stroke-width:2.0;stroke-dasharray:-;stroke-linecap:round;stroke-linejoin:round;" /><path d="M 345.0,-46.8 L 351.75,-46.8" style="stroke:black;fill:none;stroke-width:2.0;stroke-dasharray:-;stroke-linecap:round;stroke-linejoin:round;" /><path d="M 387.0,-32.4 L 387,-18 L 378,-18 L 396,-18 M 380.7,-13.68 L 393.3,-13.68 M 385.2,-9.36 L 388.8,-9.36" style="stroke:black;fill:none;stroke-width:2.0;stroke-dasharray:-;stroke-linecap:round;stroke-linejoin:round;" /><path d="M 248.4,-144.0 L 261,-144 L 273.6,-144" style="stroke:black;fill:none;stroke-width:2.0;stroke-dasharray:-;stroke-linecap:round;stroke-linejoin:round;" /><path d="M 273.6,-144.0 L 282.6,-144 L 285.6,-153 L 291.6,-135 L 297.6,-153 L 303.6,-135 L 309.6,-153 L 315.6,-135 L 318.6,-144 L 327.6,-144" style="stroke:black;fill:none;stroke-width:2.0;stroke-dasharray:-;stroke-linecap:round;stroke-linejoin:round;" /><path d="M 327.6,-144.0 L 327.6,-135 L 336.6,-132 L 318.6,-126 L 336.6,-120 L 318.6,-114 L 336.6,-108 L 318.6,-102 L 327.6,-99 L 327.6,-90" style="stroke:black;fill:none;stroke-width:2.0;stroke-dasharray:-;stroke-linecap:round;stroke-linejoin:round;" /><path d="M 327.6,-90.0 L 327.6,-75.6 L 318.6,-75.6 L 336.6,-75.6 M 321.3,-71.28 L 333.9,-71.28 M 325.8,-66.96 L 329.4,-66.96" style="stroke:black;fill:none;stroke-width:2.0;stroke-dasharray:-;stroke-linecap:round;stroke-linejoin:round;" /><path d="M 327.6,-144.0 L 261,-144 L 261,-32.4" style="stroke:black;fill:none;stroke-width:2.0;stroke-dasharray:-;stroke-linecap:round;stroke-linejoin:round;" /><path d="M 303.0,-32.4 L 248.4,-32.4 L 248.4,-207" style="stroke:black;fill:none;stroke-width:2.0;stroke-dasharray:-;stroke-linecap:round;stroke-linejoin:round;" /><path d="M 405.0,280.8 L 405,187.2 L 243,187.2 L 243,280.8 L 405,280.8" style="stroke:black;fill:none;stroke-width:2.0;stroke-dasharray:-;stroke-linecap:round;stroke-linejoin:round;" /><path d="M 387.0,280.8 L 387,302.4" style="stroke:black;fill:none;stroke-width:2.0;stroke-dasharray:-;stroke-linecap:round;stroke-linejoin:round;" /><path d="M 345.0,280.8 L 345,302.4" style="stroke:black;fill:none;stroke-width:2.0;stroke-dasharray:-;stroke-linecap:round;stroke-linejoin:round;" /><path d="M 303.0,280.8 L 303,302.4" style="stroke:black;fill:none;stroke-width:2.0;stroke-dasharray:-;stroke-linecap:round;stroke-linejoin:round;" /><path d="M 261.0,280.8 L 261,302.4" style="stroke:black;fill:none;stroke-width:2.0;stroke-dasharray:-;stroke-linecap:round;stroke-linejoin:round;" /><path d="M 387.0,187.20000000000002 L 387,165.6" style="stroke:black;fill:none;stroke-width:2.0;stroke-dasharray:-;stroke-linecap:round;stroke-linejoin:round;" /><path d="M 261.0,187.20000000000002 L 261,165.6" style="stroke:black;fill:none;stroke-width:2.0;stroke-dasharray:-;stroke-linecap:round;stroke-linejoin:round;" /><path d="M 303.0,302.40000000000003 L 303,288" style="stroke:black;fill:none;stroke-width:2.0;stroke-dasharray:-;stroke-linecap:round;stroke-linejoin:round;" /><path d="M 303.0,288.0 L 296.25,288" style="stroke:black;fill:none;stroke-width:2.0;stroke-dasharray:-;stroke-linecap:round;stroke-linejoin:round;" /><path d="M 303.0,288.0 L 309.75,288" style="stroke:black;fill:none;stroke-width:2.0;stroke-dasharray:-;stroke-linecap:round;stroke-linejoin:round;" /><path d="M 261.0,302.40000000000003 L 261,316.8 L 252,316.8 L 270,316.8 M 254.7,321.12 L 267.3,321.12 M 259.2,325.44 L 262.8,325.44" style="stroke:black;fill:none;stroke-width:2.0;stroke-dasharray:-;stroke-linecap:round;stroke-linejoin:round;" /><path d="M 387.0,302.40000000000003 L 248.4,302.4 L 248.4,-81" style="stroke:black;fill:none;stroke-width:2.0;stroke-dasharray:-;stroke-linecap:round;stroke-linejoin:round;" /><path d="M 345.0,302.40000000000003 L 248.4,302.4 L 248.4,-81" style="stroke:black;fill:none;stroke-width:2.0;stroke-dasharray:-;stroke-linecap:round;stroke-linejoin:round;" /><path d="M 387.0,165.6 L 396,165.6 L 399,156.6 L 405,174.6 L 411,156.6 L 417,174.6 L 423,156.6 L 429,174.6 L 432,165.6 L 441,165.6" style="stroke:black;fill:none;stroke-width:2.0;stroke-dasharray:-;stroke-linecap:round;stroke-linejoin:round;" /><path d="M -406.8,-100.8 L -406.8,-244.8 L 441,-244.8 L 441,165.6" style="stroke:black;fill:none;stroke-width:2.0;stroke-dasharray:-;stroke-linecap:round;stroke-linejoin:round;" /><path d="M 261.0,165.6 L 270,165.6 L 279,165.6" style="stroke:black;fill:none;stroke-width:2.0;stroke-dasharray:-;stroke-linecap:round;stroke-linejoin:round;" /><path d="M 248.4,-18.0 L 261,-18 L 273.6,-18" style="stroke:black;fill:none;stroke-width:2.0;stroke-dasharray:-;stroke-linecap:round;stroke-linejoin:round;" /><path d="M 273.6,-18.0 L 282.6,-18" style="stroke:black;fill:none;stroke-width:2.0;stroke-dasharray:-;stroke-linecap:round;stroke-linejoin:round;" /><path d="M 273.6,-0.0 L 282.6,-0" style="stroke:black;fill:none;stroke-width:2.0;stroke-dasharray:-;stroke-linecap:round;stroke-linejoin:round;" /><path d="M 273.6,-0.0 L 273.6,14.4 L 264.6,14.4 L 282.6,14.4 M 267.3,18.72 L 279.9,18.72 M 271.8,23.04 L 275.4,23.04" style="stroke:black;fill:none;stroke-width:2.0;stroke-dasharray:-;stroke-linecap:round;stroke-linejoin:round;" /><path d="M 18.0,32.4 L 18,46.8 L 18,61.2" style="stroke:black;fill:none;stroke-width:2.0;stroke-dasharray:-;stroke-linecap:round;stroke-linejoin:round;" /><path d="M 17.999999999999993,61.2 L 18,70.2 L 27,73.2 L 9,79.2 L 27,85.2 L 9,91.2 L 27,97.2 L 9,103.2 L 18,106.2 L 18,115.2" style="stroke:black;fill:none;stroke-width:2.0;stroke-dasharray:-;stroke-linecap:round;stroke-linejoin:round;" /><path d="M 17.999999999999986,115.2 L 18,129.6 L 9,129.6 L 27,129.6 M 11.7,133.92 L 24.3,133.92 M 16.2,138.24 L 19.8,138.24" style="stroke:black;fill:none;stroke-width:2.0;stroke-dasharray:-;stroke-linecap:round;stroke-linejoin:round;" /><path d="M 17.999999999999993,61.2 L 9,61.2 L 6,70.2 L -0,52.2 L -6,70.2 L -12,52.2 L -18,70.2 L -24,52.2 L -27,61.2 L -36,61.2" style="stroke:black;fill:none;stroke-width:2.0;stroke-dasharray:-;stroke-linecap:round;stroke-linejoin:round;" /><path d="M -36.00000000000001,61.199999999999996 L -36,46.8" style="stroke:black;fill:none;stroke-width:2.0;stroke-dasharray:-;stroke-linecap:round;stroke-linejoin:round;" /><path d="M -36.00000000000001,46.8 L -42.75,46.8" style="stroke:black;fill:none;stroke-width:2.0;stroke-dasharray:-;stroke-linecap:round;stroke-linejoin:round;" /><path d="M -36.00000000000001,46.8 L -29.25,46.8" style="stroke:black;fill:none;stroke-width:2.0;stroke-dasharray:-;stroke-linecap:round;stroke-linejoin:round;" /><path d="M 54.0,32.4 L 54,61.2 L 54,90" style="stroke:black;fill:none;stroke-width:2.0;stroke-dasharray:-;stroke-linecap:round;stroke-linejoin:round;" /><path d="M 90.0,32.4 L 90,75.6 L 90,118.8" style="stroke:black;fill:none;stroke-width:2.0;stroke-dasharray:-;stroke-linecap:round;stroke-linejoin:round;" /><path d="M 126.0,32.4 L 126,90 L 126,147.6" style="stroke:black;fill:none;stroke-width:2.0;stroke-dasharray:-;stroke-linecap:round;stroke-linejoin:round;" /><path d="M 125.99999999999999,147.60000000000002 L 126,156.6 M 136.8,160.92 L 136.8,188.28 M 136.8,174.6 L 144,174.6 M 126,192.6 L 126,201.6" style="stroke:black;fill:none;stroke-width:2.0;stroke-dasharray:-;stroke-linecap:round;stroke-linejoin:round;" /><path d="M 125.99999999999997,201.60000000000002 L 126,216 L 117,216 L 135,216 M 119.7,220.32 L 132.3,220.32 M 124.2,224.64 L 127.8,224.64" style="stroke:black;fill:none;stroke-width:2.0;stroke-dasharray:-;stroke-linecap:round;stroke-linejoin:round;" /><path d="M -32.4,-270.0 L -48.6,-270 L -64.8,-270" style="stroke:black;fill:none;stroke-width:2.0;stroke-dasharray:-;stroke-linecap:round;stroke-linejoin:round;" /><path d="M -64.8,-270.0 L -64.8,-261 M -54,-256.68 L -54,-229.32 M -54,-243 L -46.8,-243 M -64.8,-225 L -64.8,-216" style="stroke:black;fill:none;stroke-width:2.0;stroke-dasharray:-;stroke-linecap:round;stroke-linejoin:round;" /><path d="M -64.80000000000001,-216.0 L -64.8,-201.6 L -73.8,-201.6 L -55.8,-201.6 M -71.1,-197.28 L -58.5,-197.28 M -66.6,-192.96 L -63,-192.96" style="stroke:black;fill:none;stroke-width:2.0;stroke-dasharray:-;stroke-linecap:round;stroke-linejoin:round;" /><path d="M -44.999999999999986,378.0 L -45,486 L 117,486 L 117,378 L -45,378" style="stroke:black;fill:none;stroke-width:2.0;stroke-dasharray:-;stroke-linecap:round;stroke-linejoin:round;" /><path d="M -26.999999999999993,378.0 L -27,356.4" style="stroke:black;fill:none;stroke-width:2.0;stroke-dasharray:-;stroke-linecap:round;stroke-linejoin:round;" /><path d="M 15.00000000000001,378.0 L 15,356.4" style="stroke:black;fill:none;stroke-width:2.0;stroke-dasharray:-;stroke-linecap:round;stroke-linejoin:round;" /><path d="M 57.000000000000014,378.0 L 57,356.4" style="stroke:black;fill:none;stroke-width:2.0;stroke-dasharray:-;stroke-linecap:round;stroke-linejoin:round;" /><path d="M 99.0,378.0 L 99,356.4" style="stroke:black;fill:none;stroke-width:2.0;stroke-dasharray:-;stroke-linecap:round;stroke-linejoin:round;" /><path d="M 57.00000000000002,356.40000000000003 L 57,342" style="stroke:black;fill:none;stroke-width:2.0;stroke-dasharray:-;stroke-linecap:round;stroke-linejoin:round;" /><path d="M 57.00000000000002,342.0 L 50.25,342" style="stroke:black;fill:none;stroke-width:2.0;stroke-dasharray:-;stroke-linecap:round;stroke-linejoin:round;" /><path d="M 57.00000000000002,342.0 L 63.75,342" style="stroke:black;fill:none;stroke-width:2.0;stroke-dasharray:-;stroke-linecap:round;stroke-linejoin:round;" /><path d="M 99.00000000000001,356.40000000000003 L 99,370.8 L 90,370.8 L 108,370.8 M 92.7,375.12 L 105.3,375.12 M 97.2,379.44 L 100.8,379.44" style="stroke:black;fill:none;stroke-width:2.0;stroke-dasharray:-;stroke-linecap:round;stroke-linejoin:round;" /><path d="M -26.999999999999986,356.4 L 162,356.4 L 162,32.4" style="stroke:black;fill:none;stroke-width:2.0;stroke-dasharray:-;stroke-linecap:round;stroke-linejoin:round;" /><path d="M 15.000000000000014,356.40000000000003 L 198,356.4 L 198,32.4" style="stroke:black;fill:none;stroke-width:2.0;stroke-dasharray:-;stroke-linecap:round;stroke-linejoin:round;" /><text x="5.3999999999999995" y="-32.0" dominant-baseline="central" fill="black" font-size="14" font-family="sans" text-anchor="start"><tspan x="5.3999999999999995" dy="14">Vin</tspan></text><text x="5.3999999999999995" y="-116.0" dominant-baseline="central" fill="black" font-size="14" font-family="sans" text-anchor="start"><tspan x="5.3999999999999995" dy="14">5V</tspan></text><text x="5.3999999999999995" y="-200.0" dominant-baseline="central" fill="black" font-size="14" font-family="sans" text-anchor="start"><tspan x="5.3999999999999995" dy="14">GND</tspan></text><text x="5.3999999999999995" y="-284.0" dominant-baseline="central" fill="black" font-size="14" font-family="sans" text-anchor="start"><tspan x="5.3999999999999995" dy="14">RESET</tspan></text><text x="210.6" y="-32.0" dominant-baseline="central" fill="black" font-size="14" font-family="sans" text-anchor="end"><tspan x="210.6" dy="14">D13</tspan></text><text x="210.6" y="-95.0" dominant-baseline="central" fill="black" font-size="14" font-family="sans" text-anchor="end"><tspan x="210.6" dy="14">D12</tspan></text><text x="210.6" y="-158.0" dominant-baseline="central" fill="black" font-size="14" font-family="sans" text-anchor="end"><tspan x="210.6" dy="14">D11</tspan></text><text x="210.6" y="-221.0" dominant-baseline="central" fill="black" font-size="14" font-family="sans" text-anchor="end"><tspan x="210.6" dy="14">D10</tspan></text><text x="210.6" y="-284.0" dominant-baseline="central" fill="black" font-size="14" font-family="sans" text-anchor="end"><tspan x="210.6" dy="14">D1 TX</tspan></text><text x="18.0" y="-19.4" dominant-baseline="ideographic" fill="black" font-size="14" font-family="sans" text-anchor="middle"><tspan x="18.0" dy="14">A0</tspan></text><text x="54.0" y="-19.4" dominant-baseline="ideographic" fill="black" font-size="14" font-family="sans" text-anchor="middle"><tspan x="54.0" dy="14">A1</tspan></text><text x="90.0" y="-19.4" dominant-baseline="ideographic" fill="black" font-size="14" font-family="sans" text-anchor="middle"><tspan x="90.0" dy="14">A2</tspan></text><text x="126.0" y="-19.4" dominant-baseline="ideographic" fill="black" font-size="14" font-family="sans" text-anchor="middle"><tspan x="126.0" dy="14">A3</tspan></text><text x="162.0" y="-19.4" dominant-baseline="ideographic" fill="black" font-size="14" font-family="sans" text-anchor="middle"><tspan x="162.0" dy="14">A4 SDA</tspan></text><text x="198.0" y="-19.4" dominant-baseline="ideographic" fill="black" font-size="14" font-family="sans" text-anchor="middle"><tspan x="198.0" dy="14">A5 SCL</tspan></text><text x="111.60000000000001" y="-158.6" dominant-baseline="central" fill="black" font-size="11" font-family="sans" text-anchor="middle"><tspan x="111.60000000000001" dy="11">Arduino UNO</tspan></text><text x="-32.4" y="-129.0" dominant-baseline="ideographic" fill="black" font-size="9" font-family="sans" text-anchor="middle"><tspan x="-32.4" dy="9">+5V</tspan></text><text x="-433.8" y="-21.2" dominant-baseline="central" fill="black" font-size="14" font-family="sans" text-anchor="end"><tspan x="-433.8" dy="14">+12V</tspan></text><text x="-433.8" y="-68.0" dominant-baseline="central" fill="black" font-size="14" font-family="sans" text-anchor="end"><tspan x="-433.8" dy="14">GND</tspan></text><text x="-433.8" y="-114.8" dominant-baseline="central" fill="black" font-size="14" font-family="sans" text-anchor="end"><tspan x="-433.8" dy="14">K-line</tspan></text><text x="-464.40000000000003" y="-68.6" dominant-baseline="central" fill="black" font-size="11" font-family="sans" text-anchor="middle"><tspan x="-464.40000000000003" dy="11">Honda DLC</tspan></text><text x="-358.20000000000005" y="-28.799999999999997" dominant-baseline="ideographic" fill="black" font-size="9" font-family="sans" text-anchor="middle"><tspan x="-358.20000000000005" dy="9">2A</tspan></text><text x="-304.20000000000005" y="-28.799999999999997" dominant-baseline="ideographic" fill="black" font-size="9" font-family="sans" text-anchor="middle"><tspan x="-304.20000000000005" dy="9">SS54</tspan></text><text x="-277.20000000000005" y="42.4" dominant-baseline="hanging" fill="black" font-size="8" font-family="sans" text-anchor="middle"><tspan x="-277.20000000000005" dy="8">SMBJ24A</tspan></text><text x="-230.40000000000003" y="-18.799999999999997" dominant-baseline="ideographic" fill="black" font-size="8" font-family="sans" text-anchor="middle"><tspan x="-230.40000000000003" dy="8">100µF + 100nF</tspan></text><text x="-154.8" y="-29.599999999999998" dominant-baseline="ideographic" fill="black" font-size="8" font-family="sans" text-anchor="middle"><tspan x="-154.8" dy="8">+12V prot</tspan></text><text x="370.8" y="-131.0" dominant-baseline="central" fill="black" font-size="14" font-family="sans" text-anchor="start"><tspan x="370.8" dy="14">5V</tspan></text><text x="324.0" y="-131.0" dominant-baseline="central" fill="black" font-size="14" font-family="sans" text-anchor="start"><tspan x="324.0" dy="14">GND</tspan></text><text x="277.2" y="-131.0" dominant-baseline="central" fill="black" font-size="14" font-family="sans" text-anchor="start"><tspan x="277.2" dy="14">RX2</tspan></text><text x="320.40000000000003" y="-182.1" dominant-baseline="central" fill="black" font-size="11" font-family="sans" text-anchor="middle"><tspan x="320.40000000000003" dy="11">ESP32</tspan><tspan x="320.40000000000003" dy="11">WiFi AP + WS :81</tspan></text><text x="370.8" y="-117.0" dominant-baseline="ideographic" fill="black" font-size="9" font-family="sans" text-anchor="middle"><tspan x="370.8" dy="9">+5V</tspan></text><text x="300.6" y="-290.59999999999997" dominant-baseline="ideographic" fill="black" font-size="8" font-family="sans" text-anchor="middle"><tspan x="300.6" dy="8">1kΩ</tspan></text><text x="327.6" y="-281.59999999999997" dominant-baseline="ideographic" fill="black" font-size="8" font-family="sans" text-anchor="middle"><tspan x="327.6" dy="8">2kΩ</tspan></text><text x="302.40000000000003" y="-281.59999999999997" dominant-baseline="ideographic" fill="black" font-size="8" font-family="sans" text-anchor="middle"><tspan x="302.40000000000003" dy="8">3.3V</tspan></text><text x="261.0" y="-19.400000000000006" dominant-baseline="central" fill="black" font-size="14" font-family="sans" text-anchor="start"><tspan x="261.0" dy="14">RXD</tspan></text><text x="303.0" y="-19.400000000000006" dominant-baseline="central" fill="black" font-size="14" font-family="sans" text-anchor="start"><tspan x="303.0" dy="14">TXD</tspan></text><text x="345.0" y="-19.400000000000006" dominant-baseline="central" fill="black" font-size="14" font-family="sans" text-anchor="start"><tspan x="345.0" dy="14">VCC</tspan></text><text x="387.0" y="-19.400000000000006" dominant-baseline="central" fill="black" font-size="14" font-family="sans" text-anchor="start"><tspan x="387.0" dy="14">GND</tspan></text><text x="327.59999999999997" y="23.1" dominant-baseline="central" fill="black" font-size="11" font-family="sans" text-anchor="middle"><tspan x="327.59999999999997" dy="11">HC-05</tspan><tspan x="327.59999999999997" dy="11">Bluetooth</tspan></text><text x="345.0" y="-59.4" dominant-baseline="ideographic" fill="black" font-size="9" font-family="sans" text-anchor="middle"><tspan x="345.0" dy="9">+5V</tspan></text><text x="300.6" y="-164.6" dominant-baseline="ideographic" fill="black" font-size="8" font-family="sans" text-anchor="middle"><tspan x="300.6" dy="8">1kΩ</tspan></text><text x="327.6" y="-155.6" dominant-baseline="ideographic" fill="black" font-size="8" font-family="sans" text-anchor="middle"><tspan x="327.6" dy="8">2kΩ</tspan></text><text x="294.3" y="-155.6" dominant-baseline="ideographic" fill="black" font-size="8" font-family="sans" text-anchor="middle"><tspan x="294.3" dy="8">3.3V</tspan></text><text x="387.0" y="261.40000000000003" dominant-baseline="central" fill="black" font-size="14" font-family="sans" text-anchor="start"><tspan x="387.0" dy="14">RX</tspan></text><text x="345.0" y="261.40000000000003" dominant-baseline="central" fill="black" font-size="14" font-family="sans" text-anchor="start"><tspan x="345.0" dy="14">TX</tspan></text><text x="303.0" y="261.40000000000003" dominant-baseline="central" fill="black" font-size="14" font-family="sans" text-anchor="start"><tspan x="303.0" dy="14">VCC</tspan></text><text x="261.0" y="261.40000000000003" dominant-baseline="central" fill="black" font-size="14" font-family="sans" text-anchor="start"><tspan x="261.0" dy="14">GND</tspan></text><text x="387.0" y="178.6" dominant-baseline="central" fill="black" font-size="14" font-family="sans" text-anchor="end"><tspan x="387.0" dy="14">K</tspan></text><text x="261.0" y="178.6" dominant-baseline="central" fill="black" font-size="14" font-family="sans" text-anchor="end"><tspan x="261.0" dy="14">VB</tspan></text><text x="320.40000000000003" y="213.9" dominant-baseline="central" fill="black" font-size="11" font-family="sans" text-anchor="middle"><tspan x="320.40000000000003" dy="11">L9637D</tspan><tspan x="320.40000000000003" dy="11">K-line xcvr</tspan></text><text x="303.0" y="275.40000000000003" dominant-baseline="ideographic" fill="black" font-size="9" font-family="sans" text-anchor="middle"><tspan x="303.0" dy="9">+5V</tspan></text><text x="414.0" y="145.0" dominant-baseline="ideographic" fill="black" font-size="8" font-family="sans" text-anchor="middle"><tspan x="414.0" dy="8">510Ω</tspan></text><text x="17.099999999999987" y="-256.4" dominant-baseline="ideographic" fill="black" font-size="8" font-family="sans" text-anchor="middle"><tspan x="17.099999999999987" dy="8">K-line</tspan></text><text x="282.59999999999997" y="157.6" dominant-baseline="central" fill="black" font-size="8" font-family="sans" text-anchor="start"><tspan x="282.59999999999997" dy="8">+12V prot</tspan></text><text x="289.35" y="-60.1" dominant-baseline="ideographic" fill="black" font-size="8" font-family="sans" text-anchor="middle"><tspan x="289.35" dy="8">buzzer</tspan><tspan x="289.35" dy="8">piezo</tspan></text><text x="17.999999999999993" y="49.6" dominant-baseline="ideographic" fill="black" font-size="8" font-family="sans" text-anchor="middle"><tspan x="17.999999999999993" dy="8">10kΩ</tspan></text><text x="-9.000000000000005" y="40.6" dominant-baseline="ideographic" fill="black" font-size="8" font-family="sans" text-anchor="middle"><tspan x="-9.000000000000005" dy="8">33kΩ</tspan></text><text x="-36.00000000000001" y="35.199999999999996" dominant-baseline="ideographic" fill="black" font-size="8" font-family="sans" text-anchor="middle"><tspan x="-36.00000000000001" dy="8">+12V batt</tspan></text><text x="132.83999999999997" y="197.20000000000005" dominant-baseline="hanging" fill="black" font-size="8" font-family="sans" text-anchor="middle"><tspan x="132.83999999999997" dy="8">tact (page/mode)</tspan></text><text x="-57.96000000000001" y="-220.4" dominant-baseline="hanging" fill="black" font-size="8" font-family="sans" text-anchor="middle"><tspan x="-57.96000000000001" dy="8">reset tact</tspan></text><text x="-26.999999999999993" y="369.40000000000003" dominant-baseline="central" fill="black" font-size="14" font-family="sans" text-anchor="start"><tspan x="-26.999999999999993" dy="14">SDA</tspan></text><text x="15.00000000000001" y="369.40000000000003" dominant-baseline="central" fill="black" font-size="14" font-family="sans" text-anchor="start"><tspan x="15.00000000000001" dy="14">SCL</tspan></text><text x="57.000000000000014" y="369.40000000000003" dominant-baseline="central" fill="black" font-size="14" font-family="sans" text-anchor="start"><tspan x="57.000000000000014" dy="14">VCC</tspan></text><text x="99.0" y="369.40000000000003" dominant-baseline="central" fill="black" font-size="14" font-family="sans" text-anchor="start"><tspan x="99.0" dy="14">GND</tspan></text><text x="39.6" y="424.59999999999997" dominant-baseline="central" fill="black" font-size="11" font-family="sans" text-anchor="middle"><tspan x="39.6" dy="11">I2C LCD 16x2</tspan></text><text x="57.00000000000002" y="329.40000000000003" dominant-baseline="ideographic" fill="black" font-size="9" font-family="sans" text-anchor="middle"><tspan x="57.00000000000002" dy="9">+5V</tspan></text><text x="67.50000000000001" y="351.99999999999994" dominant-baseline="hanging" fill="black" font-size="8" font-family="sans" text-anchor="middle"><tspan x="67.50000000000001" dy="8">4.7kΩ pull-ups to +5V</tspan></text><circle cx="-277.2" cy="-7.2" r="2.7" style="stroke:black;fill:black;stroke-width:2.0;stroke-dasharray:-;" /><circle cx="327.6" cy="-270" r="2.7" style="stroke:black;fill:black;stroke-width:2.0;stroke-dasharray:-;" /><circle cx="327.6" cy="-144" r="2.7" style="stroke:black;fill:black;stroke-width:2.0;stroke-dasharray:-;" /><circle cx="18" cy="61.2" r="2.7" style="stroke:black;fill:black;stroke-width:2.0;stroke-dasharray:-;" /><circle cx="54" cy="90" r="2.7" style="stroke:black;fill:white;stroke-width:2.0;stroke-dasharray:-;" /><text x="53.99999999999999" y="88.3" dominant-baseline="hanging" fill="black" font-size="8" font-family="sans" text-anchor="middle"><tspan x="53.99999999999999" dy="8">AEM AFR</tspan><tspan x="53.99999999999999" dy="8">0-5V</tspan></text><circle cx="90" cy="118.8" r="2.7" style="stroke:black;fill:white;stroke-width:2.0;stroke-dasharray:-;" /><text x="89.99999999999999" y="117.1" dominant-baseline="hanging" fill="black" font-size="8" font-family="sans" text-anchor="middle"><tspan x="89.99999999999999" dy="8">Fuel press</tspan><tspan x="89.99999999999999" dy="8">0.5-4.5V</tspan></text></svg>